<?xml version="1.0" encoding="UTF-8"?>
<svg id="Layer_1" data-name="Layer 1" xmlns="http://www.w3.org/2000/svg" viewBox="0 0 230.81 262.71">
  <defs>
    <style>
      .cls-1 {
        fill: #383938;
      }

      .cls-2 {
        fill: #be202e;
      }

      .cls-3 {
        fill: #fbb042;
      }

      .cls-4 {
        fill: #046938;
      }
    </style>
  </defs>
  <path class="cls-4" d="M141.19,109.4c36.99,36.17,39.37,80.44,45.16,129.28-.77,4.56-2.73,10.03-6.86,12.44-3.8,2.22-22.54,10.7-26.27,11.4-8.67,1.64-10.9-7.3-10.27-14.13l11.5-96.54-4.93-2.59c-.94.19-2.76,3.34-3.41,4.28-14.89,22.11-28.08,45.67-42.38,68.21-4.62,7.28-11.64,20.42-18.78,24.67-13.96,8.27-20.05-2.76-29.41-11.07-5.97-5.31-13.89-11.24-19.28-16.94-9.81-10.36-3.75-22.52,6.26-29.86,27.91-20.46,59.51-38.32,88-58.31.85-.6,1.65-1.28,2.54-1.84l-2.52-7.75-111.95.03c-9.09-1.01-18.15-6.69-18.58-16.65,2.63-10.27,4.9-20.69,7.76-30.9,3.84-13.68,4.85-22.14,22.38-20.51,21.53,8.29,43.16,17.08,64.27,26.51,18.08,8.09,32.57,16.38,46.76,30.25l.02.02Z"/>
  <path class="cls-2" d="M213.78,85.76l-26.34,19.06,1.72,5.25,32.76,1.43c2.64.1,4.64,2.2,5.65,4.5,1.31,3.04,3.7,21.91,3.17,25.08-.53,3.17-2.18,4.21-5.32,3.62-3.65-.68-14.31-5.2-18.22-6.89-29.14-12.68-50.11-50.11-55.87-80.29-2.51-13.1-3.34-26.85-5.89-39.99.56-6.33,4.32-6.64,9.26-3.96s17.64,10.7,20.34,14.93c1.86,2.92,2.32,4.37,2.22,7.92-.29,10.36-2.81,22.78-3.86,33.32-.19,1.98-1.4,14.35-1.01,14.98l3.19,2.56c6.45-7.9,11.38-17.21,17.42-25.45,3.86-5.29,6.18-8.99,11.52-1.94,1.64,2.17,10.42,17.62,10.78,19.64.43,2.47.14,4.3-1.5,6.24h-.02Z"/>
  <path class="cls-1" d="M121.06,75.45c-17.71-18.78-35.35-37.91-52.66-57.19-5.97-12.33.84-13.29,10.73-15.25,5.65-1.11,18.12-3.94,23.18-2.71,2.85.68,6.62,3.72,8.5,5.99,13.39,23.36,25.74,47.41,38.4,71.21.17,2.41.34,3.99-1.4,5.78-.67.68-7.3,5.54-8.1,5.9-1.02.46-2.12.72-3.26.63-4.15-.29-12.33-11.11-15.39-14.35v-.02Z"/>
  <path class="cls-3" d="M186.28,136.24c1.98-.6,3.58.27,4.96,1.6,10.36,9.93,19.24,23.03,29.7,33.06,4.37,5.15,6.69,8.02,5.2,15.35-.58,2.88-7.76,21.38-9.33,23.03-3.62,3.86-6.45.82-8.6-2.51-10.88-16.87-19.16-37.53-29.57-54.93-2.85-3.24,5.32-14.93,7.61-15.61h.02Z"/>
</svg>