<?xml version="1.0" encoding="UTF-8"?>
<svg id="Layer_1" data-name="Layer 1" xmlns="http://www.w3.org/2000/svg" viewBox="0 0 791.92 156.61">
  <defs>
    <style>
      .cls-1 {
        fill: #be1e2d;
      }

      .cls-2 {
        fill: #383838;
      }

      .cls-3 {
        fill: #006838;
      }

      .cls-4 {
        fill: #fbb040;
      }
    </style>
  </defs>
  <g>
    <path class="cls-3" d="M82.75,64.13c21.68,21.2,23.08,47.15,26.47,75.78-.45,2.67-1.6,5.88-4.02,7.29-2.23,1.3-13.21,6.27-15.4,6.68-5.08.96-6.39-4.28-6.02-8.28l6.74-56.59-2.89-1.52c-.55.11-1.62,1.96-2,2.51-8.73,12.96-16.46,26.77-24.84,39.98-2.71,4.27-6.82,11.97-11.01,14.46-8.18,4.85-11.75-1.62-17.24-6.49-3.5-3.11-8.14-6.59-11.3-9.93-5.75-6.07-2.2-13.2,3.67-17.5,16.36-11.99,34.88-22.46,51.58-34.18.5-.35.97-.75,1.49-1.08l-1.48-4.54-65.62.02c-5.33-.59-10.64-3.92-10.89-9.76,1.54-6.02,2.87-12.13,4.55-18.11,2.25-8.02,2.84-12.98,13.12-12.02,12.62,4.86,25.3,10.01,37.67,15.54,10.6,4.74,19.09,9.6,27.41,17.73Z"/>
    <path class="cls-1" d="M125.3,50.27l-15.44,11.17,1.01,3.08,19.2.84c1.55.06,2.72,1.29,3.31,2.64.77,1.78,2.17,12.84,1.86,14.7s-1.28,2.47-3.12,2.12c-2.14-.4-8.39-3.05-10.68-4.04-17.08-7.43-29.37-29.37-32.75-47.06-1.47-7.68-1.96-15.74-3.45-23.44.33-3.71,2.53-3.89,5.43-2.32s10.34,6.27,11.92,8.75c1.09,1.71,1.36,2.56,1.3,4.64-.17,6.07-1.65,13.35-2.26,19.53-.11,1.16-.82,8.41-.59,8.78l1.87,1.5c3.78-4.63,6.67-10.09,10.21-14.92,2.26-3.1,3.62-5.27,6.75-1.14.96,1.27,6.11,10.33,6.32,11.51.25,1.45.08,2.52-.88,3.66Z"/>
    <path class="cls-2" d="M70.95,44.23c-10.38-11.01-20.72-22.22-30.87-33.52-3.5-7.23.49-7.79,6.29-8.94,3.31-.65,10.62-2.31,13.59-1.59,1.67.4,3.88,2.18,4.98,3.51,7.85,13.69,15.09,27.79,22.51,41.74.1,1.41.2,2.34-.82,3.39-.39.4-4.28,3.25-4.75,3.46-.6.27-1.24.42-1.91.37-2.43-.17-7.23-6.51-9.02-8.41Z"/>
    <path class="cls-4" d="M109.18,79.86c1.16-.35,2.1.16,2.91.94,6.07,5.82,11.28,13.5,17.41,19.38,2.56,3.02,3.92,4.7,3.05,9-.34,1.69-4.55,12.53-5.47,13.5-2.12,2.26-3.78.48-5.04-1.47-6.38-9.89-11.23-22-17.33-32.2-1.67-1.9,3.12-8.75,4.46-9.15Z"/>
  </g>
  <g>
    <path class="cls-2" d="M209.98,98.04c0-3.12-1.15-5.66-3.44-7.61-2.29-1.95-5.17-3.73-8.64-5.34-3.47-1.61-7.22-3.27-11.27-4.98-4.05-1.71-7.81-3.81-11.27-6.3-3.47-2.49-6.35-5.59-8.64-9.3-2.29-3.71-3.44-8.44-3.44-14.2,0-4.98.83-9.3,2.49-12.96,1.66-3.66,4.03-6.71,7.1-9.15,3.07-2.44,6.71-4.25,10.91-5.42,4.2-1.17,8.88-1.76,14.05-1.76,5.95,0,11.57.51,16.84,1.54,5.27,1.02,9.61,2.51,13.03,4.47l-6.3,16.84c-2.15-1.37-5.37-2.61-9.66-3.73-4.3-1.12-8.93-1.68-13.91-1.68-4.68,0-8.27.93-10.76,2.78-2.49,1.86-3.73,4.34-3.73,7.47,0,2.93,1.15,5.37,3.44,7.32,2.29,1.95,5.17,3.76,8.64,5.42,3.46,1.66,7.22,3.37,11.27,5.12,4.05,1.76,7.81,3.88,11.27,6.37,3.46,2.49,6.34,5.56,8.64,9.22,2.29,3.66,3.44,8.22,3.44,13.69s-.9,10.17-2.71,14.13c-1.81,3.95-4.34,7.25-7.61,9.88-3.27,2.64-7.22,4.59-11.86,5.86-4.64,1.27-9.74,1.9-15.3,1.9-7.32,0-13.76-.68-19.33-2.05s-9.66-2.73-12.3-4.1l6.44-17.13c1.07.59,2.46,1.22,4.17,1.9,1.71.68,3.63,1.32,5.78,1.9,2.15.58,4.42,1.08,6.81,1.46,2.39.39,4.85.59,7.39.59,5.95,0,10.52-1,13.69-3,3.17-2,4.76-5.05,4.76-9.15Z"/>
    <path class="cls-2" d="M262.68,95.26h-5.12v30.31h-19.03V23.08h19.03v60.47l4.39-2.05,16.69-29.13h20.94l-17.57,27.82-7.47,5.56,8.05,5.71,19.76,34.11h-21.81l-17.86-30.31Z"/>
    <path class="cls-2" d="M304.85,31.72c0-2.83,1.05-5.25,3.15-7.25,2.1-2,5-3,8.71-3s6.71,1,9,3c2.29,2,3.44,4.42,3.44,7.25s-1.15,5.2-3.44,7.1c-2.29,1.9-5.3,2.85-9,2.85s-6.61-.95-8.71-2.85c-2.1-1.9-3.15-4.27-3.15-7.1ZM307.63,52.37h19.03v73.2h-19.03V52.37Z"/>
    <path class="cls-2" d="M360.62,100.97c0,3.42.44,5.91,1.32,7.47.88,1.56,2.29,2.34,4.25,2.34,1.17,0,2.32-.1,3.44-.29,1.12-.19,2.51-.63,4.17-1.32l2.05,14.93c-1.56.78-3.95,1.56-7.17,2.34-3.22.78-6.54,1.17-9.96,1.17-5.56,0-9.81-1.29-12.74-3.88s-4.39-6.86-4.39-12.81V23.08h19.03v77.89Z"/>
    <path class="cls-2" d="M399.27,100.97c0,3.42.44,5.91,1.32,7.47.88,1.56,2.29,2.34,4.25,2.34,1.17,0,2.32-.1,3.44-.29,1.12-.19,2.51-.63,4.17-1.32l2.05,14.93c-1.56.78-3.95,1.56-7.17,2.34-3.22.78-6.54,1.17-9.96,1.17-5.56,0-9.81-1.29-12.74-3.88s-4.39-6.86-4.39-12.81V23.08h19.03v77.89Z"/>
    <path class="cls-2" d="M487.7,46.95c0,2.54-.32,5.08-.95,7.61-.63,2.54-1.67,4.86-3.13,6.95-1.46,2.1-3.35,3.95-5.68,5.56-2.33,1.61-5.14,2.81-8.44,3.59v.88c2.91.49,5.68,1.32,8.3,2.49,2.62,1.17,4.9,2.78,6.85,4.83,1.94,2.05,3.47,4.54,4.59,7.47,1.12,2.93,1.68,6.39,1.68,10.39,0,5.27-1.12,9.83-3.37,13.69-2.25,3.86-5.25,7-9,9.44-3.76,2.44-8.03,4.25-12.81,5.42-4.78,1.17-9.71,1.76-14.79,1.76h-6.37c-2.59,0-5.37-.07-8.35-.22-2.98-.15-6-.37-9.08-.66-3.07-.29-5.88-.73-8.42-1.32V23.82c1.85-.29,3.98-.59,6.37-.88,2.39-.29,4.95-.54,7.69-.73,2.73-.19,5.54-.34,8.42-.44,2.88-.1,5.73-.15,8.56-.15,4.78,0,9.44.37,13.98,1.1s8.59,2.03,12.15,3.88c3.56,1.85,6.42,4.44,8.56,7.76,2.15,3.32,3.22,7.52,3.22,12.59ZM444.8,66.13c1.37,0,2.95-.05,4.76-.14,1.8-.1,3.29-.24,4.46-.43,3.71-1.16,6.9-2.9,9.59-5.22,2.68-2.32,4.03-5.36,4.03-9.13,0-2.51-.49-4.59-1.46-6.23-.98-1.64-2.27-2.95-3.88-3.91-1.61-.97-3.44-1.64-5.49-2.03-2.05-.39-4.2-.58-6.44-.58-2.54,0-4.88.05-7.03.15s-3.81.24-4.98.43v27.09h6.44ZM451.15,110.2c2.4,0,4.72-.29,6.97-.87,2.25-.58,4.24-1.47,5.97-2.68s3.11-2.73,4.17-4.57c1.05-1.83,1.58-4.01,1.58-6.52,0-3.19-.62-5.7-1.87-7.54-1.25-1.83-2.88-3.26-4.89-4.28-2.01-1.02-4.26-1.67-6.75-1.96-2.49-.29-4.98-.44-7.47-.44h-10.49v27.97c.48.2,1.24.34,2.3.44,1.05.1,2.18.17,3.38.22,1.2.05,2.44.1,3.74.15,1.29.05,2.42.07,3.38.07Z"/>
    <path class="cls-2" d="M540.84,70.23c-3.03-1.07-5.76-1.61-8.2-1.61-3.42,0-6.27.9-8.56,2.71-2.29,1.81-3.83,4.12-4.61,6.95v47.29h-19.03V52.37h14.79l2.2,9.66h.59c1.66-3.61,3.9-6.39,6.73-8.35,2.83-1.95,6.15-2.93,9.96-2.93,2.54,0,5.42.54,8.64,1.61l-2.49,17.86Z"/>
    <path class="cls-2" d="M546.26,31.72c0-2.83,1.05-5.25,3.15-7.25,2.1-2,5-3,8.71-3s6.71,1,9,3c2.29,2,3.44,4.42,3.44,7.25s-1.15,5.2-3.44,7.1-5.29,2.85-9,2.85-6.61-.95-8.71-2.85c-2.1-1.9-3.15-4.27-3.15-7.1ZM549.04,52.37h19.03v73.2h-19.03V52.37Z"/>
    <path class="cls-2" d="M644.64,99.8c0,4.1.05,8.2.15,12.3.1,4.1.54,8.64,1.32,13.62h-13.62l-2.63-9.52h-.59c-1.95,3.42-4.76,6.17-8.42,8.27s-7.98,3.15-12.96,3.15c-9.18,0-16.3-3.02-21.38-9.08-5.08-6.05-7.61-15.52-7.61-28.4s2.83-22.2,8.49-29.13c5.66-6.93,13.96-10.39,24.89-10.39,3.02,0,5.51.17,7.47.51,1.95.34,3.9.9,5.86,1.68v-29.72h19.03v76.72ZM612.29,111.51c3.71,0,6.64-.9,8.79-2.71,2.14-1.8,3.66-4.42,4.54-7.83v-31.04c-1.37-1.07-2.88-1.88-4.54-2.42-1.66-.54-3.81-.81-6.44-.81-5.37,0-9.39,1.81-12.08,5.42-2.69,3.61-4.03,9.81-4.03,18.59,0,6.25,1.1,11.27,3.29,15.08,2.2,3.81,5.68,5.71,10.47,5.71Z"/>
    <path class="cls-2" d="M718.87,125.57c0,10.64-2.88,18.47-8.64,23.5-5.76,5.03-13.81,7.54-24.16,7.54-7.03,0-12.57-.49-16.62-1.46-4.05-.98-7.1-2-9.15-3.07l3.95-15.08c2.24.88,4.86,1.76,7.83,2.63,2.97.88,6.66,1.32,11.05,1.32,6.64,0,11.15-1.44,13.54-4.32,2.39-2.88,3.59-6.91,3.59-12.08v-4.69h-.59c-3.42,4.59-9.47,6.88-18.15,6.88-9.47,0-16.52-2.93-21.16-8.78-4.64-5.86-6.96-15.03-6.96-27.52s3.12-22.99,9.37-29.72c6.24-6.73,15.32-10.1,27.23-10.1,6.25,0,11.83.44,16.76,1.32,4.93.88,8.95,1.9,12.08,3.07v70.57ZM686.66,111.51c3.71,0,6.56-.83,8.56-2.49,2-1.66,3.54-4.15,4.61-7.47v-32.94c-3.03-1.27-6.78-1.9-11.27-1.9-4.88,0-8.69,1.83-11.42,5.49-2.73,3.66-4.1,9.49-4.1,17.5,0,7.13,1.17,12.54,3.51,16.25,2.34,3.71,5.71,5.56,10.1,5.56Z"/>
    <path class="cls-2" d="M789.58,119.27c-2.93,2.34-6.91,4.32-11.93,5.93-5.03,1.61-10.37,2.42-16.03,2.42-11.81,0-20.45-3.44-25.91-10.32-5.47-6.88-8.2-16.32-8.2-28.33,0-12.88,3.08-22.55,9.22-28.99s14.79-9.66,25.91-9.66c3.71,0,7.32.49,10.83,1.46,3.51.98,6.63,2.59,9.37,4.83,2.73,2.25,4.93,5.27,6.59,9.08,1.66,3.81,2.49,8.54,2.49,14.2,0,2.05-.12,4.25-.37,6.59-.24,2.34-.61,4.78-1.09,7.32h-43.78c.29,6.15,1.87,10.79,4.74,13.91,2.87,3.12,7.52,4.68,13.93,4.68,3.99,0,7.56-.61,10.72-1.83,3.16-1.22,5.57-2.46,7.22-3.73l6.28,12.45ZM762.41,65.54c-4.95,0-8.62,1.49-11,4.47-2.38,2.98-3.81,6.95-4.29,11.93h27.08c.39-5.27-.41-9.32-2.4-12.15-1.99-2.83-5.12-4.25-9.39-4.25Z"/>
  </g>
</svg>